# xmcd
#
# Track frame offsets:
#	150
#	76257
#	88297
#	107367
#	125092
#	140132
#	156257
#	172590
#	187587
#	206652
#	224225
#	242227
#	259130
#	277862
#	295747
#	315055
#
# Disc length: 4474 seconds
#
# Revision: 1
# Processed by: cddbd v1.5.1PL0 Copyright (c) Steve Scherf et al.
# Submitted via: CDex 1.50Beta5
#
DISCID=e0117810
DTITLE=DJ - パラパラ大パニック 2000 BEST
DYEAR=1900
DGENRE=
TTITLE0=NON-STOP MEGA MIX PARAPARA PANIC 2000
TTITLE1=JUMP
TTITLE2=PARA PARA CARNIVAL
TTITLE3=MIDNIGHT COWGIRL
TTITLE4=SHOW ME YOUR LOVE
TTITLE5=Ain't No Mountain High Enough
TTITLE6=FOOTLOOSE
TTITLE7=HAPPEY WEEKEND
TTITLE8=MAKE YOU FEEL ALL RIGHT
TTITLE9=BOOM BOOM HONEY
TTITLE10=JUNGLE FIRE
TTITLE11=DANCE DAMCE DANCE
TTITLE12=DON'T YOU KNOW MY BODY
TTITLE13=The Final Countdown
TTITLE14=アイムソーリー ヒゲソーリー
TTITLE15=私をバリに連れてって
EXTD=
EXTT0=
EXTT1=
EXTT2=
EXTT3=
EXTT4=
EXTT5=
EXTT6=
EXTT7=
EXTT8=
EXTT9=
EXTT10=
EXTT11=
EXTT12=
EXTT13=
EXTT14=
EXTT15=
PLAYORDER=
